<?xml version="1.0" encoding="UTF-8"?>
<svg version="1.1" xmlns="http://www.w3.org/2000/svg" width="512" height="512">
<path d="M0 0 C0.90235396 -0.00367669 1.80470792 -0.00735338 2.73440593 -0.01114148 C5.75881038 -0.02215658 8.78318044 -0.02601849 11.80760193 -0.02983093 C13.97603463 -0.03609727 16.14446627 -0.04274422 18.31289673 -0.04974365 C25.43539179 -0.07076786 32.55788703 -0.08114518 39.68040466 -0.09111023 C42.13461252 -0.09515853 44.58882025 -0.09927548 47.04302788 -0.10346031 C58.57498262 -0.12250913 70.10693098 -0.13674028 81.63889843 -0.14507228 C94.93892436 -0.154841 108.23874277 -0.18115237 121.5387159 -0.22157317 C131.82596938 -0.251762 142.11317519 -0.26654383 152.4004721 -0.26985329 C158.54107968 -0.27220078 164.68150922 -0.28112222 170.82206917 -0.30631447 C176.60298356 -0.32964815 182.38360335 -0.33380697 188.16455269 -0.32355309 C190.28003928 -0.32305889 192.39554064 -0.32934474 194.51098251 -0.34310913 C215.08322321 -0.46941742 227.60798529 3.67555182 242.48558044 18.2089386 C245.35823252 21.05530354 248.20940556 23.92258811 251.05931091 26.79170227 C252.59475916 28.32767024 254.13072844 29.86311751 255.66719055 31.39807129 C258.87409838 34.60506844 262.07581386 37.81713121 265.27366638 41.03315735 C269.35120357 45.13337012 273.43970966 49.22242906 277.53196907 53.30794239 C280.70156352 56.47417818 283.86611571 59.64541491 287.02912521 62.81822777 C288.53393989 64.32686278 290.04007045 65.83418653 291.54759598 67.34011269 C312.48779282 88.27659275 312.48779282 88.27659275 315.98899841 97.39717102 C316.36927185 98.35107727 316.74954529 99.30498352 317.14134216 100.28779602 C318.68568778 105.13955992 319.17642047 109.82113279 319.18292618 114.89634895 C319.18676732 116.02603163 319.19060847 117.1557143 319.19456601 118.31962979 C319.19369953 119.5507436 319.19283305 120.78185742 319.19194031 122.05027771 C319.19639699 124.02374847 319.19639699 124.02374847 319.20094371 126.03708732 C319.20899329 129.68307613 319.21080214 133.32904523 319.21154118 136.97504187 C319.2133953 140.90976836 319.22094447 144.84448471 319.22767639 148.77920532 C319.24124592 157.3806197 319.24728234 165.9820294 319.25168705 174.5834527 C319.25445192 179.95695628 319.25868973 185.33045806 319.26319122 190.70396042 C319.2753823 205.58934732 319.28568179 220.4747328 319.28906631 235.36012459 C319.28928588 236.31243355 319.28950545 237.26474251 319.28973167 238.24590933 C319.28994994 239.20046341 319.29016822 240.1550175 319.29039311 241.13849747 C319.29083658 243.07270376 319.29128314 245.00691005 319.29173279 246.94111633 C319.29195422 247.90054417 319.29217565 248.85997201 319.29240379 249.84847341 C319.29635039 265.38876973 319.31380093 280.92901911 319.33709231 296.4692973 C319.36082667 312.43436226 319.37326912 328.39940369 319.37443423 344.36448658 C319.37534984 353.32419 319.38107337 362.28383228 319.39925385 371.24351883 C319.41468301 378.87406044 319.41975872 386.50452199 319.41151574 394.13507624 C319.40761914 398.02517677 319.40849018 401.91511623 319.42257309 405.80519676 C319.43537171 409.37329441 319.43406279 412.94111095 319.42198238 416.50920855 C319.41912036 418.39690097 319.43091587 420.28459853 319.44340444 422.17225182 C319.36241143 436.24901112 316.04705205 447.74113045 306.55149841 458.33467102 C298.91513692 465.60176939 288.44135863 470.26366781 277.90392017 470.27859879 C276.88298041 470.28243993 275.86204065 470.28628108 274.81016332 470.29023862 C273.69539182 470.28937214 272.58062032 470.28850565 271.43206787 470.28761292 C269.64764724 470.2920696 269.64764724 470.2920696 267.8271777 470.29661632 C264.52850505 470.30378853 261.22988448 470.30647501 257.93120778 470.30721378 C254.37210135 470.3090671 250.81300616 470.31661585 247.25390625 470.323349 C239.47278887 470.33692177 231.69167665 470.34295543 223.9105494 470.34735966 C219.05014897 470.35012394 214.18975052 470.35436165 209.32935143 470.35886383 C195.86715094 470.37105526 182.40495205 470.38135473 168.94274616 470.38473892 C168.0813949 470.38495849 167.22004364 470.38517805 166.33259083 470.38540427 C165.03750625 470.38573169 165.03750625 470.38573169 163.71625835 470.38606572 C161.96675829 470.38650918 160.21725823 470.38695575 158.46775818 470.3874054 C157.16604483 470.38773754 157.16604483 470.38773754 155.83803423 470.38807639 C141.78038875 470.39202335 127.72279514 470.40947482 113.66516969 470.43276492 C99.22566259 470.45649421 84.7861815 470.4689415 70.34665459 470.47010684 C62.24213503 470.47102273 54.13768306 470.4767533 46.03318214 470.49492645 C39.13121898 470.51034876 32.22934429 470.51543537 25.32736716 470.50718835 C21.80813881 470.50328933 18.2890885 470.50417462 14.7698822 470.5182457 C10.9483844 470.53094976 7.12734189 470.52509606 3.30584717 470.5146637 C1.65042033 470.5267483 1.65042033 470.5267483 -0.03844947 470.53907704 C-12.9967704 470.45648991 -23.59753427 466.30176281 -33.19850159 457.52217102 C-44.32184576 445.74583701 -45.24962415 431.50285453 -45.209198 416.18786621 C-45.21222129 414.5634779 -45.21611166 412.93909101 -45.22079057 411.31470662 C-45.2310565 406.86596338 -45.22889232 402.41730086 -45.22460997 397.96855104 C-45.22214019 393.16474503 -45.23116007 388.36095833 -45.23864746 383.55715942 C-45.25138965 374.15155897 -45.25318873 364.74598707 -45.2508472 355.34037944 C-45.24906327 347.69385886 -45.25081528 340.04734695 -45.25507164 332.40082741 C-45.25566683 331.31201916 -45.25626202 330.22321092 -45.25687524 329.10140849 C-45.25808701 326.88939307 -45.25930115 324.67737765 -45.26051762 322.46536223 C-45.2713914 301.72583078 -45.26923148 280.9863156 -45.26313277 260.24678323 C-45.25796428 241.28265306 -45.26921757 222.31857426 -45.28823099 203.35445424 C-45.30761335 183.87269272 -45.31586466 164.3909555 -45.31210774 144.90918428 C-45.31019624 133.97545164 -45.31267831 123.04176272 -45.32682228 112.10803795 C-45.33874213 102.79955909 -45.34013419 93.49115087 -45.32803211 84.18267103 C-45.32214759 79.43587635 -45.32103224 74.68921082 -45.33303452 69.94242477 C-45.34390718 65.59172907 -45.34077353 61.24127015 -45.32677283 56.89058546 C-45.3241297 55.32201082 -45.3264803 53.75341753 -45.33450869 52.18486121 C-45.40877668 36.58398723 -43.11374633 23.85815605 -32.44850159 11.95967102 C-23.33257337 3.28455171 -12.24044911 -0.0026832 0 0 Z " fill="#E8EFF7" transform="translate(118.94850158691406,20.852828979492188)"/>
<path d="M0 0 C8.33315569 4.90677219 13.58690117 12.41840122 16.3359375 21.65234375 C17.95414296 29.74337104 16.17201337 37.20077171 12.7265625 44.60546875 C8.06500136 51.39897611 2.17464937 56.1412423 -5.2734375 59.60546875 C-4.56960937 59.66863281 -3.86578125 59.73179688 -3.140625 59.796875 C8.73064928 61.26916098 19.57455858 66.05488132 27.75390625 74.9375 C36.08335562 86.2028741 37.94892354 96.90299476 38.02172852 110.64233398 C38.03324432 112.15414797 38.05369021 113.66592143 38.08325195 115.17749023 C38.2708401 124.78640474 38.34723148 132.13688319 31.83203125 139.84765625 C31.19910156 140.38648438 30.56617188 140.9253125 29.9140625 141.48046875 C29.28886719 142.03476563 28.66367188 142.5890625 28.01953125 143.16015625 C22.9920017 146.32912718 17.58405038 146.85834905 11.7565918 146.89599609 C11.09863617 146.90271332 10.44068054 146.90943054 9.76278687 146.91635132 C7.60870608 146.93519676 5.45493911 146.93924865 3.30078125 146.94140625 C1.78774391 146.94784376 0.27470779 146.95457281 -1.23832703 146.96157837 C-4.40297325 146.97351769 -7.5675106 146.97726268 -10.73217773 146.97607422 C-14.76352993 146.97587127 -18.79417529 147.00316274 -22.8253603 147.03761864 C-25.94916413 147.05998784 -29.07280057 147.06390871 -32.19667625 147.06285477 C-33.68166729 147.06519609 -35.16666398 147.07393568 -36.65157509 147.0895195 C-46.19813569 147.18032926 -54.98214891 146.87072221 -62.7109375 140.640625 C-63.484375 139.66416016 -63.484375 139.66416016 -64.2734375 138.66796875 C-64.8096875 138.01957031 -65.3459375 137.37117187 -65.8984375 136.703125 C-70.17819416 130.17406442 -69.64568716 123.30805009 -69.64404297 115.78833008 C-69.6483776 113.57357597 -69.68461753 111.36088133 -69.72265625 109.14648438 C-69.82432456 96.4096892 -67.36658276 85.78589722 -59.2734375 75.60546875 C-58.79519531 74.99058594 -58.31695312 74.37570313 -57.82421875 73.7421875 C-49.91328963 64.75521261 -37.8853772 60.6475659 -26.2734375 59.60546875 C-26.84191406 59.32574219 -27.41039062 59.04601562 -27.99609375 58.7578125 C-37.29669183 53.9289544 -43.56766759 47.92253329 -46.85546875 37.81640625 C-48.5328932 28.94330119 -48.374045 19.26390302 -43.2734375 11.60546875 C-32.83414186 -2.90383076 -16.4737802 -7.75875927 0 0 Z " fill="#0CA0F1" transform="translate(218.2734375,67.39453125)"/>
<path d="M0 0 C0.84968518 0.00086648 1.69937037 0.00173296 2.57480359 0.0026257 C3.47051171 -0.00034542 4.36621982 -0.00331654 5.28907061 -0.0063777 C8.31460169 -0.01510494 11.3400934 -0.01657633 14.36563611 -0.01806521 C16.52513202 -0.02269059 18.6846271 -0.02771487 20.84412122 -0.03311038 C26.72850727 -0.04626453 32.61288189 -0.05268535 38.49728036 -0.05712104 C42.17031184 -0.06004728 45.84334016 -0.06415124 49.51637006 -0.06862521 C60.99866996 -0.08230888 72.48096269 -0.09197094 83.96327019 -0.0958271 C97.2356341 -0.10030834 110.50789506 -0.11785572 123.78022766 -0.1468277 C134.02652782 -0.16842064 144.27279897 -0.17853013 154.51912165 -0.17986822 C160.6444399 -0.18091808 166.76966149 -0.18686414 172.89495587 -0.20468783 C178.6568826 -0.22112696 184.41863956 -0.22334424 190.18058133 -0.21454883 C192.29738689 -0.21377618 194.41420141 -0.21815091 196.53098416 -0.22800708 C199.41737666 -0.24066002 202.30316192 -0.23488592 205.18954968 -0.22442508 C206.03031198 -0.23248148 206.87107428 -0.24053789 207.73731422 -0.24883842 C213.40074548 -0.20072469 216.7105136 0.88472213 220.94864392 4.8305676 C222.69697077 8.23520409 222.94120219 11.45443697 222.13614392 15.1430676 C219.96039976 17.83411958 218.22548536 19.59839688 215.13614392 21.1430676 C212.26274011 21.24776808 209.4132084 21.29086148 206.53926587 21.29023862 C205.63861978 21.29391531 204.73797369 21.297592 203.81003529 21.3013801 C200.77379435 21.31244658 197.73758759 21.31626577 194.70132947 21.32006955 C192.53183373 21.32633191 190.36233906 21.3329785 188.19284558 21.33998227 C182.28579562 21.3574119 176.37875377 21.36794913 170.47168446 21.3761878 C166.78407437 21.3813332 163.09646683 21.3874091 159.40885854 21.39369893 C147.87957765 21.41275545 136.35030319 21.42698628 124.82100958 21.4353109 C111.49653979 21.44508965 98.17228577 21.47142391 84.84787077 21.51181179 C74.55908865 21.54193208 64.27035418 21.55677584 53.98152882 21.56009191 C47.83159868 21.56244684 41.68184562 21.57146496 35.53196263 21.59655309 C29.74782659 21.61976761 23.96398506 21.62409367 18.17981458 21.6137917 C16.05494006 21.61329464 13.93005137 21.61966506 11.80522084 21.63334775 C8.90778181 21.65096409 6.0114115 21.64401104 3.1139729 21.63081479 C2.27000178 21.64178404 1.42603065 21.65275328 0.55648464 21.66405493 C-3.45382548 21.61985489 -5.38422745 21.45214013 -8.83903289 19.22586465 C-12.07775845 15.8944093 -12.07775845 15.8944093 -12.86385608 13.1430676 C-12.78190086 8.63553054 -12.35218817 6.7046495 -9.36385608 3.2680676 C-8.12635608 2.2161926 -8.12635608 2.2161926 -6.86385608 1.1430676 C-5.02677735 -0.69401112 -2.44573469 0.0122762 0 0 Z " fill="#B6CAE5" transform="translate(161.8638560771942,383.8569324016571)"/>
<path d="M0 0 C0.84968518 0.00086648 1.69937037 0.00173296 2.57480359 0.0026257 C3.47051171 -0.00034542 4.36621982 -0.00331654 5.28907061 -0.0063777 C8.31460169 -0.01510494 11.3400934 -0.01657633 14.36563611 -0.01806521 C16.52513202 -0.02269059 18.6846271 -0.02771487 20.84412122 -0.03311038 C26.72850727 -0.04626453 32.61288189 -0.05268535 38.49728036 -0.05712104 C42.17031184 -0.06004728 45.84334016 -0.06415124 49.51637006 -0.06862521 C60.99866996 -0.08230888 72.48096269 -0.09197094 83.96327019 -0.0958271 C97.2356341 -0.10030834 110.50789506 -0.11785572 123.78022766 -0.1468277 C134.02652782 -0.16842064 144.27279897 -0.17853013 154.51912165 -0.17986822 C160.6444399 -0.18091808 166.76966149 -0.18686414 172.89495587 -0.20468783 C178.6568826 -0.22112696 184.41863956 -0.22334424 190.18058133 -0.21454883 C192.29738689 -0.21377618 194.41420141 -0.21815091 196.53098416 -0.22800708 C199.41737666 -0.24066002 202.30316192 -0.23488592 205.18954968 -0.22442508 C206.03031198 -0.23248148 206.87107428 -0.24053789 207.73731422 -0.24883842 C213.40074548 -0.20072469 216.7105136 0.88472213 220.94864392 4.8305676 C222.69697077 8.23520409 222.94120219 11.45443697 222.13614392 15.1430676 C219.96039976 17.83411958 218.22548536 19.59839688 215.13614392 21.1430676 C212.26274011 21.24776808 209.4132084 21.29086148 206.53926587 21.29023862 C205.63861978 21.29391531 204.73797369 21.297592 203.81003529 21.3013801 C200.77379435 21.31244658 197.73758759 21.31626577 194.70132947 21.32006955 C192.53183373 21.32633191 190.36233906 21.3329785 188.19284558 21.33998227 C182.28579562 21.3574119 176.37875377 21.36794913 170.47168446 21.3761878 C166.78407437 21.3813332 163.09646683 21.3874091 159.40885854 21.39369893 C147.87957765 21.41275545 136.35030319 21.42698628 124.82100958 21.4353109 C111.49653979 21.44508965 98.17228577 21.47142391 84.84787077 21.51181179 C74.55908865 21.54193208 64.27035418 21.55677584 53.98152882 21.56009191 C47.83159868 21.56244684 41.68184562 21.57146496 35.53196263 21.59655309 C29.74782659 21.61976761 23.96398506 21.62409367 18.17981458 21.6137917 C16.05494006 21.61329464 13.93005137 21.61966506 11.80522084 21.63334775 C8.90778181 21.65096409 6.0114115 21.64401104 3.1139729 21.63081479 C2.27000178 21.64178404 1.42603065 21.65275328 0.55648464 21.66405493 C-3.45382548 21.61985489 -5.38422745 21.45214013 -8.83903289 19.22586465 C-12.07775845 15.8944093 -12.07775845 15.8944093 -12.86385608 13.1430676 C-12.78190086 8.63553054 -12.35218817 6.7046495 -9.36385608 3.2680676 C-8.12635608 2.2161926 -8.12635608 2.2161926 -6.86385608 1.1430676 C-5.02677735 -0.69401112 -2.44573469 0.0122762 0 0 Z " fill="#B6CAE5" transform="translate(161.8638560771942,319.8569324016571)"/>
<path d="M0 0 C0.84968518 0.00086648 1.69937037 0.00173296 2.57480359 0.0026257 C3.47051171 -0.00034542 4.36621982 -0.00331654 5.28907061 -0.0063777 C8.31460169 -0.01510494 11.3400934 -0.01657633 14.36563611 -0.01806521 C16.52513202 -0.02269059 18.6846271 -0.02771487 20.84412122 -0.03311038 C26.72850727 -0.04626453 32.61288189 -0.05268535 38.49728036 -0.05712104 C42.17031184 -0.06004728 45.84334016 -0.06415124 49.51637006 -0.06862521 C60.99866996 -0.08230888 72.48096269 -0.09197094 83.96327019 -0.0958271 C97.2356341 -0.10030834 110.50789506 -0.11785572 123.78022766 -0.1468277 C134.02652782 -0.16842064 144.27279897 -0.17853013 154.51912165 -0.17986822 C160.6444399 -0.18091808 166.76966149 -0.18686414 172.89495587 -0.20468783 C178.6568826 -0.22112696 184.41863956 -0.22334424 190.18058133 -0.21454883 C192.29738689 -0.21377618 194.41420141 -0.21815091 196.53098416 -0.22800708 C199.41737666 -0.24066002 202.30316192 -0.23488592 205.18954968 -0.22442508 C206.03031198 -0.23248148 206.87107428 -0.24053789 207.73731422 -0.24883842 C213.40074548 -0.20072469 216.7105136 0.88472213 220.94864392 4.8305676 C222.69697077 8.23520409 222.94120219 11.45443697 222.13614392 15.1430676 C219.96039976 17.83411958 218.22548536 19.59839688 215.13614392 21.1430676 C212.26274011 21.24776808 209.4132084 21.29086148 206.53926587 21.29023862 C205.63861978 21.29391531 204.73797369 21.297592 203.81003529 21.3013801 C200.77379435 21.31244658 197.73758759 21.31626577 194.70132947 21.32006955 C192.53183373 21.32633191 190.36233906 21.3329785 188.19284558 21.33998227 C182.28579562 21.3574119 176.37875377 21.36794913 170.47168446 21.3761878 C166.78407437 21.3813332 163.09646683 21.3874091 159.40885854 21.39369893 C147.87957765 21.41275545 136.35030319 21.42698628 124.82100958 21.4353109 C111.49653979 21.44508965 98.17228577 21.47142391 84.84787077 21.51181179 C74.55908865 21.54193208 64.27035418 21.55677584 53.98152882 21.56009191 C47.83159868 21.56244684 41.68184562 21.57146496 35.53196263 21.59655309 C29.74782659 21.61976761 23.96398506 21.62409367 18.17981458 21.6137917 C16.05494006 21.61329464 13.93005137 21.61966506 11.80522084 21.63334775 C8.90778181 21.65096409 6.0114115 21.64401104 3.1139729 21.63081479 C2.27000178 21.64178404 1.42603065 21.65275328 0.55648464 21.66405493 C-3.45382548 21.61985489 -5.38422745 21.45214013 -8.83903289 19.22586465 C-12.07775845 15.8944093 -12.07775845 15.8944093 -12.86385608 13.1430676 C-12.78190086 8.63553054 -12.35218817 6.7046495 -9.36385608 3.2680676 C-8.12635608 2.2161926 -8.12635608 2.2161926 -6.86385608 1.1430676 C-5.02677735 -0.69401112 -2.44573469 0.0122762 0 0 Z " fill="#B6CAE5" transform="translate(161.8638560771942,255.8569324016571)"/>
<path d="M0 0 C11.90347587 1.7777475 21.56928255 15.27800937 29.69140625 23.42578125 C31.20608382 24.93910896 32.72105795 26.4521399 34.23631287 27.96488953 C37.40062868 31.12626827 40.56132901 34.29120573 43.71948242 37.45874023 C47.74606528 41.4967068 51.78154885 45.52563933 55.81980991 49.5519228 C58.94717696 52.67202454 62.06971776 55.7969215 65.19087029 58.92323875 C66.67600111 60.40969369 68.16259112 61.89469234 69.65072823 63.37813759 C90.9905989 84.66546707 90.9905989 84.66546707 92 92 C82.11606617 92.13940252 72.23236857 92.24582427 62.34764957 92.31087303 C57.75704634 92.34210341 53.16711875 92.38442263 48.5769043 92.45263672 C44.14183917 92.51812804 39.70742131 92.55376834 35.27190971 92.56926346 C33.5850551 92.58029676 31.89823343 92.60184247 30.21165657 92.63438034 C14.29508248 92.92906087 14.29508248 92.92906087 7.63865662 87.69473267 C1.4461717 81.2903363 -0.12840854 75.504221 -0.11352539 66.75292969 C-0.11367142 66.03058136 -0.11381744 65.30823303 -0.1139679 64.56399536 C-0.11327284 62.18325772 -0.1054995 59.80259892 -0.09765625 57.421875 C-0.09579063 55.76849409 -0.0943674 54.11511262 -0.09336853 52.46173096 C-0.08955473 48.11505603 -0.07973415 43.76841463 -0.06866455 39.42175293 C-0.05842599 34.98429823 -0.05386567 30.54683811 -0.04882812 26.109375 C-0.03811086 17.40623463 -0.02104809 8.70312149 0 0 Z " fill="#B7CAE5" transform="translate(341,25)"/>
<path d="M0 0 C-0.48351929 1.22517334 -0.48351929 1.22517334 -0.97680664 2.47509766 C-2.14486104 6.49904647 -2.34152826 10.24555486 -2.37109375 14.3984375 C-2.38012222 15.19222809 -2.3891507 15.98601868 -2.39845276 16.80386353 C-2.41290059 18.47630067 -2.42182834 20.14879363 -2.42553711 21.82128906 C-2.43743445 24.36100729 -2.48666971 26.89829341 -2.53710938 29.4375 C-2.75351228 41.12432616 -2.75351228 41.12432616 3 51 C8.2047915 55.94455192 12.80740977 57.24103192 19.90161133 57.31884766 C20.91220108 57.33391609 20.91220108 57.33391609 21.94320679 57.34928894 C24.1561401 57.38002434 26.36895296 57.39712879 28.58203125 57.4140625 C30.12189259 57.43278195 31.66174376 57.45235595 33.20158386 57.4727478 C37.24402865 57.52399306 41.28650666 57.56365931 45.32910156 57.60089111 C49.45841643 57.64097859 53.58759398 57.69204925 57.71679688 57.7421875 C65.81110398 57.83885666 73.90547925 57.92329008 82 58 C81.10658687 66.53121948 78.4748511 70.93790651 72.07421875 76.703125 C67.14539887 79.78479769 61.71928584 80.25377313 56.0300293 80.29052734 C55.37207367 80.29724457 54.71411804 80.30396179 54.03622437 80.31088257 C51.88214358 80.32972801 49.72837661 80.3337799 47.57421875 80.3359375 C46.06118141 80.34237501 44.54814529 80.34910406 43.03511047 80.35610962 C39.87046425 80.36804894 36.7059269 80.37179393 33.54125977 80.37060547 C29.50990757 80.37040252 25.47926221 80.39769399 21.4480772 80.43214989 C18.32427337 80.45451909 15.20063693 80.45843996 12.07676125 80.45738602 C10.59177021 80.45972734 9.10677352 80.46846693 7.62186241 80.48405075 C-1.92469819 80.57486051 -10.70871141 80.26525346 -18.4375 74.03515625 C-18.953125 73.38417969 -19.46875 72.73320312 -20 72.0625 C-20.53625 71.41410156 -21.0725 70.76570313 -21.625 70.09765625 C-25.90475666 63.56859567 -25.37224966 56.70258134 -25.37060547 49.18286133 C-25.3749401 46.96810722 -25.41118003 44.75541258 -25.44921875 42.54101562 C-25.56709358 27.7739013 -21.83830993 15.9554086 -11.4375 5.125 C-4.46901893 -1.48967298 -4.46901893 -1.48967298 0 0 Z " fill="#0889E2" transform="translate(174,134)"/>
<path d="M0 0 C0.67501053 -0.0049649 1.35002106 -0.00992981 2.04548645 -0.01504517 C4.28318292 -0.02967416 6.52080845 -0.03647056 8.75854492 -0.04199219 C10.31312563 -0.04774377 11.86770632 -0.0535015 13.42228699 -0.05926514 C16.68484834 -0.06977772 19.94738503 -0.07561845 23.20996094 -0.07910156 C27.38641071 -0.0845818 31.56253372 -0.10859842 35.73888111 -0.13707352 C38.95168502 -0.15571839 42.16441059 -0.16090651 45.37726402 -0.16243744 C46.91662059 -0.16546118 48.45597587 -0.17348034 49.99527931 -0.18662262 C52.15205166 -0.20371968 54.30803072 -0.20179426 56.46484375 -0.1953125 C57.69125076 -0.19895813 58.91765778 -0.20260376 60.18122864 -0.20635986 C64.53173802 0.28628726 67.08019651 1.90766511 70.23901367 4.84863281 C71.98734052 8.25326931 72.23157194 11.47250219 71.42651367 15.16113281 C69.25076951 17.8521848 67.51585511 19.61646209 64.42651367 21.16113281 C62.17619819 21.27376946 59.92249744 21.3205256 57.66943359 21.33813477 C56.97491592 21.34470596 56.28039825 21.35127716 55.56483459 21.35804749 C53.26221614 21.37778739 50.95966294 21.38944477 48.65698242 21.39941406 C47.87071283 21.40348959 47.08444324 21.40756512 46.27434731 21.41176414 C42.11242561 21.43262822 37.95053691 21.44692824 33.78857422 21.45629883 C29.49096548 21.4673618 25.19387474 21.50175893 20.89644909 21.54147053 C17.59099875 21.56762433 14.28567204 21.57598955 10.98012733 21.57958031 C9.39609594 21.58444981 7.8120702 21.59607425 6.22813988 21.6146183 C4.00893581 21.63898401 1.7910744 21.63805025 -0.42822266 21.63110352 C-1.69015945 21.63696976 -2.95209625 21.642836 -4.25227356 21.64888 C-8.16103155 21.074847 -9.79502201 19.91294836 -12.57348633 17.16113281 C-14.30980269 13.68850008 -14.17539035 9.94920268 -13.57348633 6.16113281 C-9.31123762 0.77723971 -6.64170068 0.03704967 0 0 Z " fill="#B6CAE5" transform="translate(312.573486328125,191.8388671875)"/>
<path d="M0 0 C-0.33 1.093125 -0.66 2.18625 -1 3.3125 C-3.29066306 12.74073636 -2.45427028 21.3411088 2 30 C7.0619211 37.52239921 14.04886833 42.88975375 23.00390625 44.72265625 C29.72466102 45.65645975 35.50339142 44.68430593 42 43 C41.11319725 48.11876017 37.88187047 50.78999173 34 54 C25.82733148 59.24936786 16.38245434 60.27942566 6.9375 58.3125 C-2.02925405 55.73277909 -8.58960986 49.69404371 -13.32421875 41.7890625 C-17.05415646 33.91038705 -17.41490207 24.74333028 -15.33984375 16.3203125 C-13.08302758 10.67338718 -6.81816906 0 0 0 Z " fill="#0689E2" transform="translate(187,69)"/>
</svg>
